<?xml version="1.0" encoding="utf-8"?>
<svg version="1.1" id="1" xmlns:serif="http://www.serif.com/"
	 xmlns="http://www.w3.org/2000/svg" xmlns:xlink="http://www.w3.org/1999/xlink" x="0px" y="0px" viewBox="0 0 456 456"
	 style="enable-background:new 0 0 456 456;" xml:space="preserve">
<style type="text/css">
	.st0{display:none;}
	.st1{fill:#FFFFFF;}
</style>
<path class="st0" d="M299.1,280.1h-17.6l-46.3-73c-1.2-1.8-2.1-3.8-2.9-5.8h-0.4c0.4,2.1,0.5,6.7,0.5,13.6v65.1h-15.5v-99.4h18.7
	l44.7,71.3c1.9,3,3.1,5,3.6,6.1h0.3c-0.5-2.6-0.7-7.1-0.7-13.4v-64h15.5V280.1z"/>
<polygon class="st1" points="283.6,180.8 283.6,222.6 232.5,222.6 232.5,180.8 216.9,180.8 216.9,222.6 216.9,238.2 216.9,280.1 
	232.5,280.1 232.5,238.2 283.6,238.2 283.6,280.1 299.1,280.1 299.1,238.2 299.1,222.6 299.1,180.8 "/>
<path class="st1" d="M211.3,280.1h-54.4v-99.4h52.2v14H173v28.1h33.3v13.9H173v29.4h38.3V280.1z"/>
</svg>
